<svg xmlns="http://www.w3.org/2000/svg" viewBox="0 0 203 218">
  <defs>
    <linearGradient id="tech-gradient-1" x1="0%" y1="0%" x2="100%" y2="100%">
      <stop offset="0%" stop-color="#00c6ff" />
      <stop offset="100%" stop-color="#0072ff" />
    </linearGradient>
    <linearGradient id="tech-gradient-2" x1="100%" y1="0%" x2="0%" y2="100%">
      <stop offset="0%" stop-color="#7b4397" />
      <stop offset="100%" stop-color="#0072ff" />
    </linearGradient>
    <linearGradient id="tech-gradient-3" x1="0%" y1="100%" x2="100%" y2="0%">
      <stop offset="0%" stop-color="#00c6ff" />
      <stop offset="100%" stop-color="#7b4397" />
    </linearGradient>
  </defs>
  <title>科技风图标</title>
  <path d="M203 158a60 60 0 0 1-60 60H2a60 60 0 0 1 60-60zm-60-79a60 60 0 0 1 60 60H62A60 60 0 0 1 2 79h141zm58-79a60 60 0 0 1-60 60H0A60 60 0 0 1 60 0z" fill="url(#tech-gradient-1)" fill-rule="evenodd"/>
  <path d="M203 158a60 60 0 0 1-60 60H2a60 60 0 0 1 60-60z" fill="url(#tech-gradient-2)" fill-rule="evenodd" opacity="0.9"/>
  <path d="M143 79a60 60 0 0 1 60 60H62A60 60 0 0 1 2 79h141z" fill="url(#tech-gradient-3)" fill-rule="evenodd" opacity="0.9"/>
</svg>
